<svg width="43" height="40" viewBox="0 0 43 40" fill="none" xmlns="http://www.w3.org/2000/svg">
<path d="M14 33L21 39L28 33" stroke="#1E1E1E" stroke-width="2" stroke-linecap="round" stroke-linejoin="round"/>
<path d="M1.312 13.32H3.456L6.96 22.552L7.296 23.672L7.648 22.552L11.232 13.32H13.296V25H11.776V16.392L11.856 14.472L11.264 16.376L7.92 25H6.624L3.328 16.392L2.736 14.504L2.816 16.392V25H1.312V13.32ZM19.8738 25.16C16.9457 25.16 15.3618 23.16 15.3618 20.52C15.3618 17.928 17.0578 15.864 19.8898 15.864C22.7538 15.864 24.3858 17.912 24.3858 20.52C24.3858 23.096 22.7378 25.16 19.8738 25.16ZM19.8738 23.848C21.8578 23.848 22.8177 22.456 22.8177 20.52C22.8177 18.536 21.8418 17.16 19.8898 17.16C17.9538 17.16 16.9457 18.584 16.9457 20.52C16.9457 22.488 17.8898 23.848 19.8738 23.848ZM30.5803 15.912C31.3003 15.912 31.8603 16.088 32.2763 16.344L31.7803 17.736C31.3323 17.432 30.8203 17.288 30.1803 17.288C28.9323 17.288 27.9563 18.312 27.9563 20.584V25H26.4043V16.04H27.9403V18.328C28.3563 16.664 29.2363 15.912 30.5803 15.912ZM32.7993 20.584C32.7993 18.024 34.4953 15.864 37.3433 15.864C40.1433 15.864 41.5353 17.896 41.5353 20.44V20.92H34.3033C34.4313 22.712 35.4553 23.864 37.3753 23.864C38.7353 23.864 39.5193 23.256 40.0473 22.344L41.3433 23.08C40.6393 24.2 39.4233 25.16 37.3913 25.16C34.3193 25.16 32.7993 23.16 32.7993 20.584ZM37.3433 17.16C35.5833 17.144 34.5273 18.248 34.3353 19.928H40.0153C39.9193 18.296 39.0713 17.144 37.3433 17.16Z" fill="#8A8A8A"/>
</svg>
